<svg width="38" height="38" viewBox="0 0 38 38" fill="none" xmlns="http://www.w3.org/2000/svg">
<path fill-rule="evenodd" clip-rule="evenodd" d="M19 0C8.50659 0 0 8.50659 0 19C0 29.4934 8.50659 38 19 38C29.4934 38 38 29.4934 38 19C38 8.50659 29.4934 0 19 0ZM11.7999 8.23333H26.8334C28.1012 8.23333 29.1333 9.253 29.1333 10.5165V30.4L26.7212 28.2942L25.3637 27.0528L23.9277 25.7339L24.5223 27.7843H11.7999C10.5322 27.7843 9.5 26.7647 9.5 25.5012V10.5165C9.5 9.253 10.5322 8.23333 11.7999 8.23333Z" fill="#332B29"/>
<path fill-rule="evenodd" clip-rule="evenodd" d="M22.5029 22.7082C22.5029 22.7082 22.099 22.2316 21.7624 21.8104C23.2321 21.4003 23.793 20.4915 23.793 20.4915C23.3331 20.7907 22.8955 21.0013 22.5029 21.1454C21.9419 21.3782 21.4034 21.5333 20.8761 21.622C19.7991 21.8215 18.8118 21.7661 17.9704 21.6109C17.3309 21.489 16.7811 21.3117 16.3212 21.1343C16.0631 21.0346 15.7826 20.9127 15.5022 20.7575C15.4853 20.7464 15.4685 20.7381 15.4517 20.7298C15.4348 20.7215 15.418 20.7132 15.4012 20.7021C15.3788 20.691 15.3675 20.6799 15.3563 20.6688C15.1544 20.558 15.0422 20.4804 15.0422 20.4804C15.0422 20.4804 15.5807 21.3671 17.0055 21.7882C16.6689 22.2094 16.2538 22.7082 16.2538 22.7082C13.7744 22.6306 12.832 21.0235 12.832 21.0235C12.832 17.4547 14.4476 14.5619 14.4476 14.5619C16.0631 13.3649 17.6001 13.3982 17.6001 13.3982L17.7123 13.5312C15.6929 14.1075 14.7617 14.9831 14.7617 14.9831C14.7617 14.9831 15.0085 14.8501 15.4236 14.6617C16.6241 14.1407 17.5777 13.9967 17.9704 13.9634L17.9955 13.9592C18.0521 13.9497 18.1023 13.9412 18.1611 13.9412C18.8454 13.8526 19.6196 13.8304 20.4273 13.9191C21.4931 14.041 22.6375 14.3513 23.8043 14.9831C23.8043 14.9831 22.918 14.1518 21.0107 13.5755L21.1678 13.3982C21.1678 13.3982 22.7048 13.3649 24.3203 14.5619C24.3203 14.5619 25.9359 17.4547 25.9359 21.0235C25.9359 21.0235 24.9823 22.6306 22.5029 22.7082ZM17.602 17.7333C16.9675 17.7333 16.4666 18.3039 16.4666 19C16.4666 19.6961 16.9787 20.2667 17.602 20.2667C18.2364 20.2667 18.7373 19.6961 18.7373 19C18.7484 18.3039 18.2364 17.7333 17.602 17.7333ZM20.5293 19C20.5293 18.3039 21.0302 17.7333 21.6646 17.7333C22.2991 17.7333 22.8 18.3039 22.8 19C22.8 19.6961 22.2991 20.2667 21.6646 20.2667C21.0413 20.2667 20.5293 19.6961 20.5293 19Z" fill="#332B29"/>
</svg>
