<svg width="38" height="38" viewBox="0 0 38 38" fill="none" xmlns="http://www.w3.org/2000/svg">
<path fill-rule="evenodd" clip-rule="evenodd" d="M38 19C38 29.4934 29.4934 38 19 38C8.50659 38 0 29.4934 0 19C0 8.50659 8.50659 0 19 0C29.4934 0 38 8.50659 38 19ZM12.7233 17.2595C10.82 18.0905 8.86435 18.9444 7.07612 19.9294L7.07599 19.9295C6.14223 20.6132 7.38338 21.0967 8.54767 21.5503C8.73277 21.6224 8.91592 21.6938 9.08809 21.7651C9.23135 21.8091 9.37705 21.8555 9.52469 21.9026C10.8196 22.3151 12.2635 22.7751 13.5206 22.0831C15.5858 20.8968 17.5346 19.5253 19.482 18.1549C20.12 17.7059 20.7579 17.257 21.3996 16.8148C21.4297 16.7955 21.4636 16.7735 21.5007 16.7495C22.0474 16.3951 23.2769 15.5981 22.8221 16.6963C21.7467 17.8724 20.5947 18.9135 19.4366 19.9603C18.656 20.6657 17.8726 21.3738 17.1079 22.1274C16.4418 22.6686 15.7502 23.757 16.496 24.5148C18.2138 25.7174 19.9584 26.8908 21.702 28.0635C22.2695 28.4451 22.8368 28.8267 23.4031 29.2092C24.3628 29.9754 25.8626 29.3557 26.0736 28.1584C26.1674 27.6076 26.2616 27.0568 26.3558 26.506C26.8764 23.4624 27.3972 20.4176 27.8572 17.364C27.9197 16.885 27.9906 16.406 28.0615 15.9268C28.2334 14.7654 28.4055 13.6025 28.4592 12.4348C28.3206 11.2695 26.9077 11.5257 26.1214 11.7877C22.0798 13.3256 18.0785 14.9775 14.0931 16.6585C13.6417 16.8585 13.184 17.0584 12.7233 17.2595Z" fill="#332B29"/>
</svg>
