<svg width="65" height="66" viewBox="0 0 65 66" fill="none" xmlns="http://www.w3.org/2000/svg">
<g id="WBTC-Bd9t_EX0 1" clip-path="url(#clip0_100_493)">
<g id="Designs">
<g id="Dashboard---Order-Book---Collapsed">
<g id="Group-20">
<g id="Group-6">
<g id="Totals:-Network">
<g id="icon-wbtc">
<path id="Fill-1" fill-rule="evenodd" clip-rule="evenodd" d="M32.5 0.5C50.4465 0.5 65 15.0503 65 33C65 50.9465 50.4465 65.5 32.5 65.5C14.5503 65.5 0 50.9465 0 33C0 15.0503 14.5503 0.5 32.5 0.5Z" fill="white"/>
<path id="Fill-3" fill-rule="evenodd" clip-rule="evenodd" d="M52.9997 14.1409L51.2155 15.9251C60.0425 25.5809 60.0425 40.3716 51.2155 50.0274L52.9997 51.8116C62.8212 41.1581 62.8212 24.7521 52.9997 14.0986V14.1409Z" fill="#5A5564"/>
<path id="Fill-5" fill-rule="evenodd" clip-rule="evenodd" d="M15.4612 14.2964C25.1137 5.46937 39.9077 5.46937 49.5634 14.2964L51.3477 12.5121C40.6942 2.68737 24.285 2.68737 13.6347 12.5121L15.4612 14.2964Z" fill="#5A5564"/>
<path id="Fill-7" fill-rule="evenodd" clip-rule="evenodd" d="M13.7965 50.0433C4.9793 40.394 4.9793 25.613 13.7965 15.9605L12.0123 14.1763C2.18755 24.8298 2.18755 41.2358 12.0123 51.886L13.7965 50.0433Z" fill="#5A5564"/>
<path id="Fill-9" fill-rule="evenodd" clip-rule="evenodd" d="M49.5433 51.6904C39.8908 60.5207 25.0968 60.5207 15.4443 51.6904L13.6568 53.4779C24.3103 63.2994 40.7195 63.2994 51.3698 53.4779L49.5433 51.6904Z" fill="#5A5564"/>
<path id="Fill-11" fill-rule="evenodd" clip-rule="evenodd" d="M37.9083 28.4549C37.9083 32.0234 32.3281 31.5911 30.5536 31.5911V25.3024C32.3281 25.3024 37.9083 24.7434 37.9083 28.4549ZM39.3643 38.2179C39.3643 42.1179 32.6791 41.6726 30.5471 41.6726V34.7501C32.6791 34.7534 39.3643 34.1424 39.3643 38.2179ZM43.7681 27.0444C43.4106 23.3199 40.1996 22.0719 36.1338 21.6884V16.5566H32.9943V21.5909C32.1656 21.5909 31.3238 21.5909 30.4821 21.6169V16.5566H27.3588V21.7209H25.3601H20.9953V25.0814C20.9953 25.0814 23.3158 25.0391 23.2801 25.0814C24.1478 24.9871 24.9376 25.5981 25.0643 26.4626V40.6034C25.0448 40.8991 24.9083 41.1754 24.6873 41.3736C24.4631 41.5654 24.1706 41.6629 23.8748 41.6466C23.9138 41.6791 21.5901 41.6466 21.5901 41.6466L20.9661 45.3971H25.0578H27.3068V50.6459H30.4496V45.4751H32.9586V50.6199H36.1046V45.4361C41.4118 45.1111 45.1136 43.8046 45.5751 38.8354C45.9521 34.8379 44.0703 33.0536 41.0673 32.3321C42.8938 31.4059 44.0411 29.7679 43.7681 27.0444Z" fill="#F09242"/>
<g id="Fill-13">
<path id="Vector" fill-rule="evenodd" clip-rule="evenodd" d="M32.4935 3.03451C15.9575 3.04426 2.561 16.4538 2.56425 32.9898C2.5675 49.5258 15.9738 62.9288 32.5098 62.9288C49.0457 62.932 62.4552 49.529 62.4618 32.993C62.439 16.457 49.0327 3.05726 32.4935 3.05076V3.03451ZM32.4935 65.4995C14.547 65.4963 -0.00324946 50.946 5.44343e-07 32.9995C5.44343e-07 15.0498 14.5502 0.502762 32.4967 0.499512C50.4432 0.499512 64.9967 15.0465 65 32.993C64.9805 50.9395 50.4367 65.48 32.4935 65.4995Z" fill="#282138"/>
</g>
</g>
</g>
</g>
</g>
</g>
</g>
</g>
<defs>
<clipPath id="clip0_100_493">
<rect width="65" height="65" fill="white" transform="translate(0 0.5)"/>
</clipPath>
</defs>
</svg>
