<svg width="16" height="16" viewBox="0 0 16 16" fill="none" xmlns="http://www.w3.org/2000/svg">
<g id="arrow-turn-down-right 1">
<path id="Vector" d="M2 2.66667C2 2.29848 2.29847 2 2.66667 2C3.03486 2 3.33333 2.29848 3.33333 2.66667V7.33333C3.33333 7.86373 3.54405 8.37247 3.91912 8.74753C4.29419 9.1226 4.8029 9.33333 5.33333 9.33333H11.7239L9.5286 7.13807C9.26827 6.87773 9.26827 6.45561 9.5286 6.19526C9.78893 5.93491 10.2111 5.93491 10.4714 6.19526L13.8047 9.5286C14.0651 9.78893 14.0651 10.2111 13.8047 10.4714L10.4714 13.8047C10.2111 14.0651 9.78893 14.0651 9.5286 13.8047C9.26827 13.5444 9.26827 13.1223 9.5286 12.8619L11.7239 10.6667H5.33333C4.44928 10.6667 3.60143 10.3155 2.97631 9.69033C2.35119 9.06527 2 8.2174 2 7.33333V2.66667Z" fill="#6D655D"/>
</g>
</svg>
