<svg xmlns:xsi="http://www.w3.org/2001/XMLSchema-instance"
    xsi:noNamespaceSchemaLocation="btc.xsd" xmlns="http://www.w3.org/2000/svg" width="50"
    height="51" viewBox="0 0 50 51" fill="none">
    <g clip-path="url(#clip0_82_2439)">
        <path fill-rule="evenodd" clip-rule="evenodd"
            d="M25 0.499756C38.805 0.499756 50 11.6923 50 25.4998C50 39.3048 38.805 50.4998 25 50.4998C11.1925 50.4998 0 39.3048 0 25.4998C0 11.6923 11.1925 0.499756 25 0.499756Z"
            fill="white" />
        <path fill-rule="evenodd" clip-rule="evenodd"
            d="M40.769 10.9932L39.3965 12.3657C46.1865 19.7932 46.1865 31.1707 39.3965 38.5982L40.769 39.9707C48.324 31.7757 48.324 19.1557 40.769 10.9607V10.9932Z"
            fill="#5A5564" />
        <path fill-rule="evenodd" clip-rule="evenodd"
            d="M11.8933 11.1126C19.3183 4.32265 30.6983 4.32265 38.1258 11.1126L39.4983 9.74015C31.3033 2.18265 18.6808 2.18265 10.4883 9.74015L11.8933 11.1126Z"
            fill="#5A5564" />
        <path fill-rule="evenodd" clip-rule="evenodd"
            d="M10.6128 38.61C3.83027 31.1875 3.83027 19.8175 10.6128 12.3925L9.24027 11.02C1.68277 19.215 1.68277 31.835 9.24027 40.0275L10.6128 38.61Z"
            fill="#5A5564" />
        <path fill-rule="evenodd" clip-rule="evenodd"
            d="M38.1103 39.8774C30.6852 46.6699 19.3052 46.6699 11.8802 39.8774L10.5052 41.2524C18.7002 48.8074 31.3227 48.8074 39.5152 41.2524L38.1103 39.8774Z"
            fill="#5A5564" />
        <path fill-rule="evenodd" clip-rule="evenodd"
            d="M29.1602 22.0038C29.1602 24.7488 24.8677 24.4163 23.5027 24.4163V19.5788C24.8677 19.5788 29.1602 19.1488 29.1602 22.0038ZM30.2802 29.5138C30.2802 32.5138 25.1377 32.1713 23.4977 32.1713V26.8463C25.1377 26.8488 30.2802 26.3788 30.2802 29.5138ZM33.6677 20.9188C33.3927 18.0538 30.9227 17.0938 27.7952 16.7988V12.8513H25.3802V16.7238C24.7427 16.7238 24.0952 16.7238 23.4477 16.7438V12.8513H21.0452V16.8238H19.5077H16.1502V19.4088C16.1502 19.4088 17.9352 19.3763 17.9077 19.4088C18.5752 19.3363 19.1827 19.8063 19.2802 20.4713V31.3488C19.2652 31.5763 19.1602 31.7888 18.9902 31.9413C18.8177 32.0888 18.5927 32.1638 18.3652 32.1513C18.3952 32.1763 16.6077 32.1513 16.6077 32.1513L16.1277 35.0363H19.2752H21.0052V39.0738H23.4227V35.0963H25.3527V39.0538H27.7727V35.0663C31.8552 34.8163 34.7027 33.8113 35.0577 29.9888C35.3477 26.9138 33.9002 25.5413 31.5902 24.9863C32.9952 24.2738 33.8777 23.0138 33.6677 20.9188Z"
            fill="#F09242" />
        <path fill-rule="evenodd" clip-rule="evenodd"
            d="M24.995 2.44951C12.275 2.45701 1.97 12.772 1.9725 25.492C1.975 38.212 12.2875 48.522 25.0075 48.522C37.7275 48.5245 48.0425 38.2145 48.0475 25.4945C48.03 12.7745 37.7175 2.46701 24.995 2.46201V2.44951ZM24.995 50.4995C11.19 50.497 -0.00249958 39.3045 4.18726e-07 25.4995C4.18726e-07 11.692 11.1925 0.502012 24.9975 0.499512C38.8025 0.499512 49.9975 11.6895 50 25.4945C49.985 39.2995 38.7975 50.4845 24.995 50.4995Z"
            fill="#282138" />
    </g>
    <defs>
        <clipPath id="clip0_82_2439">
            <rect width="50" height="50" fill="white" transform="translate(0 0.5)" />
        </clipPath>
    </defs>
</svg>