<svg width="35" height="38" viewBox="0 0 35 38" fill="none" xmlns="http://www.w3.org/2000/svg">
<path d="M9.23278 15.0351C8.45733 14.5858 8.19166 13.5908 8.63935 12.8127C9.08705 12.0346 10.0787 11.768 10.8541 12.2172C10.8541 12.2172 14.56 15.0351 17.5568 15.0351C20.5537 15.0351 24.1457 12.2172 24.1457 12.2172C24.9211 11.768 25.9128 12.0346 26.3605 12.8127C26.8082 13.5908 26.5425 14.5858 25.767 15.0351C25.767 15.0351 19.1782 17.6401 19.1782 21.4361C19.1782 27.4094 19.1782 36.0779 19.1782 36.0779C19.1782 36.9764 18.4523 37.7047 17.5569 37.7047C16.6614 37.7047 15.9355 36.9764 15.9355 36.0779C15.9355 36.0779 15.9355 28.0214 15.9355 21.4361C15.9355 17.6401 9.23278 15.0351 9.23278 15.0351Z" fill="#332B29"/>
<path d="M21.1563 4.50628C21.1563 6.56225 19.5132 8.21764 17.5001 8.21764C15.487 8.21764 13.8439 6.56225 13.8439 4.50628C13.8439 2.45032 15.487 0.794922 17.5001 0.794922C19.5132 0.794922 21.1563 2.45032 21.1563 4.50628Z" fill="#007D98" stroke="#332B29"/>
<path d="M34.5 9.31927C34.5 11.3691 32.8386 13.0306 30.7891 13.0306C28.7397 13.0306 27.0782 11.3691 27.0782 9.31927C27.0782 7.26949 28.7397 5.60791 30.7891 5.60791C32.8386 5.60791 34.5 7.26949 34.5 9.31927Z" fill="#FF6656" stroke="#332B29"/>
<path d="M7.9218 9.31927C7.9218 11.3691 6.26032 13.0306 4.2109 13.0306C2.16148 13.0306 0.5 11.3691 0.5 9.31927C0.5 7.26949 2.16148 5.60791 4.2109 5.60791C6.26032 5.60791 7.9218 7.26949 7.9218 9.31927Z" fill="#A1FD59" stroke="#332B29"/>
</svg>
